<svg width="21" height="20" viewBox="0 0 21 20" fill="none" xmlns="http://www.w3.org/2000/svg">
<path d="M20.0554 15H18.7518L17.9165 11.877V8C17.9144 6.31815 17.2648 4.69324 16.0865 3.42253C14.9082 2.15181 13.2801 1.32026 11.4999 1.08V0H9.36097V1.08C7.58078 1.32026 5.95261 2.15181 4.77432 3.42253C3.59604 4.69324 2.94642 6.31815 2.94431 8V11.877L2.10907 15H0.80542V17H6.3045C6.53793 17.8576 7.07029 18.618 7.81746 19.1611C8.56464 19.7042 9.48404 19.9991 10.4304 19.9991C11.3768 19.9991 12.2962 19.7042 13.0434 19.1611C13.7906 18.618 14.3229 17.8576 14.5563 17H20.0554V15ZM5.05111 12.243L5.0832 8C5.0832 6.67392 5.64656 5.40215 6.64936 4.46447C7.65216 3.52678 9.01225 3 10.4304 3C11.8486 3 13.2087 3.52678 14.2115 4.46447C15.2143 5.40215 15.7776 6.67392 15.7776 8V12L16.5562 15H4.31427L5.05111 12.243ZM10.4304 18C10.0566 17.9989 9.68972 17.906 9.36649 17.7305C9.04326 17.555 8.77507 17.303 8.58884 17H12.272C12.0858 17.303 11.8176 17.555 11.4943 17.7305C11.1711 17.906 10.8042 17.9989 10.4304 18V18Z" fill="#9A9AB0"/>
</svg>
